<svg width="21" height="20" viewBox="0 0 21 20" fill="none" xmlns="http://www.w3.org/2000/svg">
<path fill-rule="evenodd" clip-rule="evenodd" d="M15.5456 1.91022C15.3893 1.75382 15.1772 1.66597 14.9561 1.66602C14.735 1.66606 14.5229 1.75399 14.3666 1.91045L5.74368 10.5437C5.58762 10.7 5.49996 10.9118 5.49996 11.1326V14.166C5.49996 14.6263 5.87306 14.9993 6.33329 14.9993H9.38213C9.6032 14.9993 9.81522 14.9115 9.97151 14.7551L18.5893 6.13352C18.9146 5.80811 18.9146 5.28067 18.5893 4.95526L15.5456 1.91022ZM7.16663 11.4775L14.9565 3.67834L16.8217 5.54439L9.03684 13.3327H7.16663V11.4775ZM3.83329 1.66602C2.91282 1.66602 2.16663 2.41221 2.16663 3.33268V16.666C2.16663 17.5865 2.91283 18.3327 3.83329 18.3327H17.1666C18.0871 18.3327 18.8333 17.5865 18.8333 16.666V10.8327C18.8333 10.3724 18.4602 9.99935 18 9.99935C17.5397 9.99935 17.1666 10.3724 17.1666 10.8327V16.666H3.83329V3.33268H9.66663C10.1269 3.33268 10.5 2.95959 10.5 2.49935C10.5 2.03911 10.1269 1.66602 9.66663 1.66602H3.83329Z" fill="white"/>
</svg>
