<svg width="18" height="18" viewBox="0 0 18 18" fill="none" xmlns="http://www.w3.org/2000/svg">
<path fill-rule="evenodd" clip-rule="evenodd" d="M9 1.6875C4.96142 1.6875 1.6875 4.96142 1.6875 9C1.6875 13.0386 4.96142 16.3125 9 16.3125C13.0386 16.3125 16.3125 13.0386 16.3125 9C16.3125 4.96142 13.0386 1.6875 9 1.6875ZM0 9C0 4.02943 4.02943 0 9 0C13.9706 0 18 4.02943 18 9C18 13.9706 13.9706 18 9 18C4.02943 18 0 13.9706 0 9ZM10.125 12.375C10.125 12.9963 9.62133 13.5 9 13.5C8.37868 13.5 7.875 12.9963 7.875 12.375C7.875 11.7537 8.37868 11.25 9 11.25C9.62133 11.25 10.125 11.7537 10.125 12.375ZM7.78592 6.84609C7.8765 6.66493 7.99911 6.50944 8.16724 6.39736C8.3301 6.28879 8.58514 6.1875 9 6.1875C9.31472 6.1875 9.62202 6.28488 9.82969 6.44062C10.0148 6.57947 10.125 6.76135 10.125 7.03125C10.125 7.22995 10.0791 7.32804 10.0382 7.38939C9.98716 7.46594 9.89914 7.55057 9.72727 7.66518C9.64133 7.72246 9.54887 7.77814 9.43598 7.84587L9.42909 7.85001C9.32367 7.91326 9.19917 7.98796 9.07685 8.06951C8.82684 8.2362 8.52814 8.46801 8.29792 8.81339C8.03946 9.20113 8.14427 9.72497 8.53201 9.98344C8.91975 10.2419 9.44361 10.1371 9.70207 9.74935C9.7531 9.67278 9.84112 9.58814 10.013 9.47355C10.0989 9.41626 10.1914 9.36059 10.3042 9.29286L10.3112 9.28866C10.4166 9.22544 10.5411 9.15075 10.6634 9.06923C10.9133 8.90256 11.2121 8.67079 11.4423 8.32545C11.6827 7.96493 11.8125 7.53568 11.8125 7.03125C11.8125 6.17615 11.407 5.51428 10.8422 5.09063C10.2998 4.68387 9.62278 4.5 9 4.5C8.28986 4.5 7.70115 4.67996 7.23119 4.99327C6.7665 5.30306 6.46724 5.71007 6.27658 6.09141C6.06817 6.5082 6.23711 7.01503 6.65391 7.22342C7.0707 7.43182 7.57753 7.26288 7.78592 6.84609Z" fill="white"/>
</svg>
