<svg width="16" height="17" viewBox="0 0 16 17" fill="none" xmlns="http://www.w3.org/2000/svg">
<path d="M11.4187 12.4219L10.875 12.9656L10.4957 13.0954L7.9367 13.9709L5.36443 14.8507L2.81866 15.7217L0.543749 16.5H0V15.9562L0.465246 14.8395L1.12658 13.2521L1.78792 11.665L2.49785 9.9614L3.11059 8.4909L3.77192 6.90383L4.07812 6.16875L4.62187 5.625L7.17749 8.18062L10.1134 11.1165L11.4187 12.4219Z" fill="#D69651"/>
<path d="M5.36451 14.8506L2.81875 15.7216L0.465332 14.8394L1.12667 13.252L5.36451 14.8506Z" fill="#C78640"/>
<path d="M10.4959 13.095L7.93687 13.9704L1.78809 11.6646L2.49802 9.96094L10.4959 13.095Z" fill="#C78640"/>
<path d="M10.1137 11.117L3.11084 8.49136L3.77218 6.9043L7.17775 8.18109L10.1137 11.117Z" fill="#C78640"/>
<path d="M5.9812 5.35429L7.11806 4.21743C7.26053 4.07496 7.34057 3.88172 7.34057 3.68024C7.34057 3.53156 7.29695 3.38615 7.2151 3.26203C7.13326 3.13791 7.01679 3.04053 6.88013 2.98196L6.17223 2.67858C5.69083 2.47226 5.27205 2.14314 4.9578 1.72413L4.62183 1.27617L5.43745 0.732422C5.78987 1.26105 6.30843 1.65712 6.91115 1.85803L7.23496 1.96597C7.58239 2.08178 7.88458 2.30397 8.09871 2.60106C8.31284 2.89815 8.42807 3.25509 8.42807 3.62131C8.42807 4.03784 8.27907 4.44062 8.008 4.75687L6.79682 6.16992L5.9812 5.35429Z" fill="#FFC431"/>
<path d="M9.7875 3.99453L9.51562 2.36328L11.1469 2.90703L9.7875 3.99453Z" fill="#D1E4FF"/>
<path d="M8.09473 1.26953L8.22686 0.742094L9.3142 1.01449L9.18207 1.54193L8.09473 1.26953Z" fill="#FB6A83"/>
<path d="M10.7239 1.04688L11.5394 0.50284L11.8412 0.955239L11.0257 1.49927L10.7239 1.04688Z" fill="#FFC431"/>
<path d="M4.35864 2.9707L4.88608 2.83857L5.15847 3.92591L4.63104 4.05805L4.35864 2.9707Z" fill="#6173E8"/>
<path d="M11.1469 10.5191L12.2838 9.38228C12.4263 9.2398 12.6195 9.15976 12.821 9.15976C12.9697 9.15976 13.1151 9.20339 13.2392 9.28524C13.3633 9.36708 13.4607 9.48355 13.5193 9.62021L13.8226 10.3281C14.029 10.8095 14.3581 11.2283 14.7771 11.5425L15.225 11.8785L15.7688 11.0629C15.2402 10.7105 14.8441 10.1919 14.6432 9.58918L14.5352 9.26537C14.4194 8.91794 14.1972 8.61576 13.9002 8.40163C13.6031 8.18749 13.2461 8.07227 12.8799 8.07227C12.4634 8.07227 12.0606 8.22127 11.7443 8.49234L10.3313 9.70351L11.1469 10.5191Z" fill="#6173E8"/>
<path d="M13.3218 6.98437L14.953 7.25625L14.4093 5.625L13.3218 6.98437Z" fill="#FFC431"/>
<path d="M14.9629 8.13086L15.4903 7.99873L15.7627 9.08608L15.2353 9.21821L14.9629 8.13086Z" fill="#FB6A83"/>
<path d="M15.0037 5.47656L15.5477 4.661L16.0001 4.96278L15.4561 5.77834L15.0037 5.47656Z" fill="#D1E4FF"/>
<path d="M12.4451 11.877L12.5772 11.3495L13.6646 11.6219L13.5324 12.1494L12.4451 11.877Z" fill="#6173E8"/>
<path d="M7.88428 7.52929L8.96707 6.26521C9.31865 5.85469 9.81308 5.59311 10.3503 5.53342L10.3811 5.52999C10.8419 5.4795 11.2754 5.28606 11.6206 4.9768C11.9659 4.66754 12.2058 4.25797 12.3066 3.80551V3.80551C12.3668 3.53449 12.4999 3.28506 12.6915 3.08413C12.8831 2.8832 13.1259 2.7384 13.3937 2.66535L15.4968 2.0918L15.7686 3.1793L14.2985 3.506C14.0081 3.57053 13.7428 3.71828 13.5351 3.93118C13.3274 4.14409 13.1862 4.41292 13.1288 4.70478L13.1211 4.74407C13.0246 5.2348 12.7728 5.68147 12.4029 6.01802C12.0329 6.35457 11.5645 6.56315 11.0668 6.61291L11.0347 6.61612C10.4104 6.67705 9.83514 6.98151 9.43367 7.46354C9.07734 7.89199 8.6999 8.34491 8.6999 8.34491L7.88428 7.52929Z" fill="#FB6A83"/>
</svg>
