<svg width="28" height="32" viewBox="0 0 28 32" fill="none" xmlns="http://www.w3.org/2000/svg">
<path fill-rule="evenodd" clip-rule="evenodd" d="M13.5551 0.8189C13.1513 1.03016 0.893566 8.05628 0.804292 8.12768C0.757575 8.16499 0.669989 8.30318 0.609649 8.43473C0.505546 8.66183 0.5 9.04356 0.5 15.9988C0.5 22.9541 0.505546 23.3358 0.609649 23.5629C0.669989 23.6945 0.757575 23.8327 0.804292 23.87C0.906526 23.9517 13.2244 31.0079 13.5714 31.1834C13.8815 31.3404 14.121 31.339 14.4394 31.1784C14.7571 31.0181 26.7252 24.1734 27.0402 23.9718C27.1797 23.8825 27.3163 23.7252 27.3855 23.5739C27.496 23.3325 27.5 23.0669 27.5 15.9988C27.5 8.93073 27.496 8.66512 27.3855 8.42372C27.3163 8.2725 27.1797 8.11512 27.0402 8.02585C26.7252 7.82428 14.7571 0.97951 14.4394 0.819259C14.1245 0.660383 13.8583 0.660263 13.5551 0.8189ZM19.8835 5.99239L25.6943 9.32029V15.9985V22.6768L19.8835 26.005C16.6875 27.8355 14.0416 29.3332 14.0036 29.3332C13.9656 29.3332 11.318 27.8346 8.12014 26.003L2.30574 22.6728V15.9988V9.32484L8.10766 5.99771C11.2987 4.16779 13.9463 2.66921 13.9911 2.66753C14.036 2.66586 16.6875 4.16205 19.8835 5.99239ZM4.89716 12.3663C4.78757 12.4403 4.64116 12.5767 4.57177 12.6696C4.4476 12.8359 4.44567 12.8859 4.44567 15.9882C4.44567 18.9829 4.45133 19.1474 4.5608 19.3268C4.79005 19.7025 5.35637 19.8746 5.72963 19.6819C5.81914 19.6357 5.9602 19.526 6.04308 19.438L6.19378 19.2781L6.22392 17.3245L6.25406 15.371L6.36745 15.6102C6.42983 15.7417 6.80267 16.614 7.19599 17.5485C7.58932 18.4831 7.9534 19.3118 8.00512 19.3901C8.20857 19.6981 8.42443 19.7655 9.20873 19.7657C10.0697 19.766 10.2722 19.6901 10.4872 19.2868L10.6243 19.0296V15.9988V12.9681L10.4872 12.7109C10.168 12.1121 9.32646 12.0676 8.95483 12.6297C8.85742 12.7771 8.84295 12.996 8.81595 14.7331L8.78581 16.6719L7.95045 14.6761C7.49106 13.5783 7.05705 12.6171 6.98598 12.54C6.74275 12.2759 6.57493 12.2317 5.8139 12.2317C5.16908 12.2317 5.07625 12.2454 4.89716 12.3663ZM12.6977 12.3172C12.5948 12.3616 12.4456 12.4884 12.3662 12.5989L12.2217 12.7998L12.206 15.939C12.1913 18.8383 12.1982 19.094 12.2964 19.2833C12.4661 19.6108 12.6872 19.736 13.0958 19.736C13.5047 19.736 13.7263 19.6105 13.8944 19.2833C13.9802 19.1166 13.9998 18.9192 13.9999 18.2262L14 17.3741H15.0568C16.2442 17.3741 16.4243 17.3329 16.6584 17.0072C16.8564 16.7319 16.8612 16.2293 16.6686 15.9613C16.4257 15.6236 16.2429 15.5803 15.0609 15.5803H14V14.8029V14.0256H15.5244C16.9866 14.0256 17.0595 14.0201 17.3132 13.891C17.9231 13.5808 17.9604 12.7509 17.3818 12.3675C17.1782 12.2326 17.1636 12.2317 15.0309 12.2341C13.3651 12.2359 12.8429 12.2545 12.6977 12.3172ZM18.8981 12.3301C18.3888 12.5791 18.2879 13.3782 18.7159 13.7729C18.9219 13.9629 19.1906 14.0256 19.798 14.0256H20.3223L20.3409 16.5925C20.359 19.0885 20.363 19.164 20.4856 19.3281C20.9187 19.9076 21.6087 19.9076 22.0418 19.3281C22.1644 19.1641 22.1684 19.0884 22.1865 16.599L22.205 14.0386L22.8614 14.0163C23.4109 13.9977 23.5451 13.9737 23.6866 13.869C24.2342 13.4642 24.1966 12.5993 23.6196 12.3278C23.3147 12.1842 19.1922 12.1863 18.8981 12.3301Z" fill="white"/>
</svg>
