<svg width="36" height="36" viewBox="0 0 36 36" fill="none" xmlns="http://www.w3.org/2000/svg">
<path d="M13.5 7.875V28.125" stroke="white" stroke-width="3" stroke-linecap="round" stroke-linejoin="round"/>
<path d="M3.375 23.5111C3.37495 23.252 3.46452 23.0007 3.62853 22.8C3.79253 22.5994 4.02089 22.4616 4.27488 22.41C5.29124 22.2024 6.20468 21.65 6.86069 20.8464C7.51669 20.0429 7.875 19.0374 7.875 18C7.875 16.9626 7.51669 15.9571 6.86069 15.1536C6.20468 14.35 5.29124 13.7976 4.27488 13.59C4.02089 13.5384 3.79253 13.4006 3.62853 13.2C3.46452 12.9993 3.37495 12.748 3.375 12.4889V9C3.375 8.70163 3.49353 8.41548 3.7045 8.20451C3.91548 7.99353 4.20163 7.875 4.5 7.875H31.5C31.7984 7.875 32.0845 7.99353 32.2955 8.20451C32.5065 8.41548 32.625 8.70163 32.625 9V12.4889C32.6251 12.748 32.5355 12.9993 32.3715 13.2C32.2075 13.4006 31.9791 13.5384 31.7251 13.59C30.7088 13.7976 29.7953 14.35 29.1393 15.1536C28.4833 15.9571 28.125 16.9627 28.125 18C28.125 19.0374 28.4833 20.0429 29.1393 20.8465C29.7953 21.65 30.7088 22.2024 31.7251 22.41C31.9791 22.4616 32.2075 22.5994 32.3715 22.8001C32.5355 23.0007 32.625 23.252 32.625 23.5111V27C32.625 27.2984 32.5065 27.5845 32.2955 27.7955C32.0845 28.0065 31.7984 28.125 31.5 28.125H4.5C4.20163 28.125 3.91548 28.0065 3.7045 27.7955C3.49353 27.5845 3.375 27.2984 3.375 27V23.5111Z" stroke="white" stroke-width="3" stroke-linecap="round" stroke-linejoin="round"/>
</svg>
