<svg width="36" height="36" viewBox="0 0 36 36" fill="none" xmlns="http://www.w3.org/2000/svg">
<path d="M33 3H3C2.60218 3 2.22064 3.15804 1.93934 3.43934C1.65804 3.72064 1.5 4.10218 1.5 4.5V16.5C1.5 16.8978 1.65804 17.2794 1.93934 17.5607C2.22064 17.842 2.60218 18 3 18H7.5V31.5C7.5 31.8978 7.65804 32.2794 7.93934 32.5607C8.22064 32.842 8.60218 33 9 33H27C27.3978 33 27.7794 32.842 28.0607 32.5607C28.342 32.2794 28.5 31.8978 28.5 31.5V18H33C33.3978 18 33.7794 17.842 34.0607 17.5607C34.342 17.2794 34.5 16.8978 34.5 16.5V4.5C34.5 4.10218 34.342 3.72064 34.0607 3.43934C33.7794 3.15804 33.3978 3 33 3V3ZM10.5 30V27C11.2956 27 12.0587 27.3161 12.6213 27.8787C13.1839 28.4413 13.5 29.2044 13.5 30H10.5ZM25.5 30H22.5C22.5 29.2044 22.8161 28.4413 23.3787 27.8787C23.9413 27.3161 24.7044 27 25.5 27V30ZM25.5 24C23.9087 24 22.3826 24.6321 21.2574 25.7574C20.1321 26.8826 19.5 28.4087 19.5 30H16.5C16.5 28.4087 15.8679 26.8826 14.7426 25.7574C13.6174 24.6321 12.0913 24 10.5 24V12H25.5V24ZM31.5 15H28.5V10.5C28.5 10.1022 28.342 9.72064 28.0607 9.43934C27.7794 9.15804 27.3978 9 27 9H9C8.60218 9 8.22064 9.15804 7.93934 9.43934C7.65804 9.72064 7.5 10.1022 7.5 10.5V15H4.5V6H31.5V15ZM18 22.5C18.89 22.5 19.76 22.2361 20.5001 21.7416C21.2401 21.2471 21.8169 20.5443 22.1575 19.7221C22.4981 18.8998 22.5872 17.995 22.4135 17.1221C22.2399 16.2492 21.8113 15.4474 21.182 14.818C20.5526 14.1887 19.7508 13.7601 18.8779 13.5865C18.005 13.4128 17.1002 13.5019 16.2779 13.8425C15.4557 14.1831 14.7529 14.7599 14.2584 15.4999C13.7639 16.24 13.5 17.11 13.5 18C13.5 19.1935 13.9741 20.3381 14.818 21.182C15.6619 22.0259 16.8065 22.5 18 22.5ZM18 16.5C18.2967 16.5 18.5867 16.588 18.8334 16.7528C19.08 16.9176 19.2723 17.1519 19.3858 17.426C19.4994 17.7001 19.5291 18.0017 19.4712 18.2926C19.4133 18.5836 19.2704 18.8509 19.0607 19.0607C18.8509 19.2704 18.5836 19.4133 18.2926 19.4712C18.0017 19.5291 17.7001 19.4994 17.426 19.3858C17.1519 19.2723 16.9176 19.08 16.7528 18.8334C16.588 18.5867 16.5 18.2967 16.5 18C16.5 17.6022 16.658 17.2206 16.9393 16.9393C17.2206 16.658 17.6022 16.5 18 16.5V16.5Z" fill="white"/>
</svg>
