<svg width="37" height="36" viewBox="0 0 37 36" fill="none" xmlns="http://www.w3.org/2000/svg">
<path d="M34.3509 17.126L30.875 18.8639L26.375 10.2462L29.8863 8.49051C30.1501 8.3586 30.4552 8.33557 30.7358 8.42638C31.0164 8.51719 31.2501 8.71456 31.3867 8.97601L34.845 15.599C34.9142 15.7315 34.9563 15.8763 34.9688 16.0252C34.9814 16.1741 34.9642 16.324 34.9182 16.4661C34.8722 16.6083 34.7983 16.7398 34.7009 16.8531C34.6035 16.9664 34.4846 17.0592 34.3509 17.126V17.126Z" stroke="white" stroke-width="2.5" stroke-linecap="round" stroke-linejoin="round"/>
<path d="M6.125 18.7132L2.64908 16.9753C2.51545 16.9084 2.39646 16.8157 2.29907 16.7024C2.20168 16.5891 2.12783 16.4575 2.08184 16.3154C2.03584 16.1732 2.01862 16.0234 2.03117 15.8745C2.04373 15.7256 2.08581 15.5807 2.15496 15.4483L5.61334 8.82529C5.74986 8.56384 5.98359 8.36646 6.26421 8.27566C6.54483 8.18485 6.84988 8.20788 7.11369 8.33978L10.625 10.0954L6.125 18.7132Z" stroke="white" stroke-width="2.5" stroke-linecap="round" stroke-linejoin="round"/>
<path d="M30.875 18.8639L28.625 21.4962L23.4504 26.6708C23.313 26.8081 23.1424 26.9076 22.9552 26.9594C22.768 27.0113 22.5705 27.0138 22.3821 26.9667L14.2319 24.9291C14.079 24.8909 13.9359 24.821 13.8117 24.7239L6.125 18.7132" stroke="white" stroke-width="2.5" stroke-linecap="round" stroke-linejoin="round"/>
<path d="M28.625 21.4962L22.4375 16.9962L20.6375 18.3462C19.8586 18.9304 18.9112 19.2462 17.9375 19.2462C16.9638 19.2462 16.0164 18.9304 15.2375 18.3462L14.4752 17.7744C14.3463 17.6777 14.2396 17.5544 14.1625 17.4129C14.0853 17.2714 14.0395 17.115 14.028 16.9542C14.0166 16.7934 14.0399 16.6321 14.0962 16.4811C14.1526 16.33 14.2407 16.1929 14.3547 16.0789L19.858 10.5757C19.9625 10.4712 20.0865 10.3883 20.223 10.3318C20.3595 10.2753 20.5058 10.2462 20.6535 10.2462H26.375" stroke="white" stroke-width="2.5" stroke-linecap="round" stroke-linejoin="round"/>
<path d="M10.7058 10.0954L17.9226 7.99146C18.1804 7.91631 18.4566 7.93584 18.7013 8.04655L23.5625 10.2462" stroke="white" stroke-width="2.5" stroke-linecap="round" stroke-linejoin="round"/>
<path d="M16.25 29.9337L12.0116 28.8741C11.8396 28.8311 11.6803 28.748 11.5465 28.6317L8.375 25.875" stroke="white" stroke-width="2.5" stroke-linecap="round" stroke-linejoin="round"/>
</svg>
