<svg width="37" height="36" viewBox="0 0 37 36" fill="none" xmlns="http://www.w3.org/2000/svg">
<path d="M25.055 19.695C27.11 21.09 28.55 22.98 28.55 25.5V30H34.55V25.5C34.55 22.23 29.195 20.295 25.055 19.695Z" fill="white"/>
<path d="M22.55 18C25.865 18 28.55 15.315 28.55 12C28.55 8.685 25.865 6 22.55 6C21.845 6 21.185 6.15 20.555 6.36C21.8 7.905 22.55 9.87 22.55 12C22.55 14.13 21.8 16.095 20.555 17.64C21.185 17.85 21.845 18 22.55 18Z" fill="white"/>
<path d="M13.55 18C16.865 18 19.55 15.315 19.55 12C19.55 8.685 16.865 6 13.55 6C10.235 6 7.54999 8.685 7.54999 12C7.54999 15.315 10.235 18 13.55 18ZM13.55 9C15.2 9 16.55 10.35 16.55 12C16.55 13.65 15.2 15 13.55 15C11.9 15 10.55 13.65 10.55 12C10.55 10.35 11.9 9 13.55 9Z" fill="white"/>
<path d="M13.55 19.5C9.54499 19.5 1.54999 21.51 1.54999 25.5V30H25.55V25.5C25.55 21.51 17.555 19.5 13.55 19.5ZM22.55 27H4.54999V25.515C4.84999 24.435 9.49999 22.5 13.55 22.5C17.6 22.5 22.25 24.435 22.55 25.5V27Z" fill="white"/>
</svg>
