<svg width="9" height="9" viewBox="0 0 9 9" fill="none" xmlns="http://www.w3.org/2000/svg">
<path d="M7.71387 0H2.32994C2.28574 0 2.24958 0.0361607 2.24958 0.0803571V0.642857C2.24958 0.687054 2.28574 0.723214 2.32994 0.723214H7.31208V7.63393C7.31208 7.67812 7.34824 7.71429 7.39244 7.71429H7.95494C7.99914 7.71429 8.0353 7.67812 8.0353 7.63393V0.321429C8.0353 0.143638 7.89166 0 7.71387 0ZM6.42815 1.28571H1.2853C1.10751 1.28571 0.963867 1.42935 0.963867 1.60714V6.93783C0.963867 7.02321 0.998019 7.10458 1.05829 7.16484L2.79902 8.90558C2.82112 8.92768 2.84623 8.94576 2.87335 8.96083V8.97991H2.91554C2.9507 8.99297 2.98786 9 3.02603 9H6.42815C6.60594 9 6.74958 8.85636 6.74958 8.67857V1.60714C6.74958 1.42935 6.60594 1.28571 6.42815 1.28571ZM2.87235 7.95737L2.00751 7.09152H2.87235V7.95737ZM6.02637 8.27679H3.51521V6.85045C3.51521 6.62846 3.33541 6.44866 3.11342 6.44866H1.68708V2.00893H6.02637V8.27679Z" fill="black" fill-opacity="0.85"/>
</svg>
