<svg width="34" height="34" viewBox="0 0 34 34" fill="none" xmlns="http://www.w3.org/2000/svg">
<g clip-path="url(#clip0_3423_7134)">
<path d="M19.7268 11.9764C19.7917 11.7179 19.7045 11.445 19.5023 11.2713L15.1499 7.54317C14.7093 7.16574 14.1305 7.01576 13.5619 7.1317L9.30185 8.00067C8.87069 8.08864 8.51859 8.38612 8.35996 8.79653C8.20129 9.2069 8.26175 9.66384 8.52154 10.0189L11.2902 13.8024C11.3118 13.8318 11.3353 13.8593 11.3605 13.8845C11.5284 14.0523 11.7722 14.126 12.0088 14.0739L19.196 12.492C19.4564 12.4347 19.6619 12.235 19.7268 11.9764V11.9764Z" fill="#8F57FF"/>
<path d="M19.7273 21.9644C19.6624 21.7058 19.4568 21.5061 19.1965 21.4488L12.0093 19.8669C11.7371 19.807 11.4553 19.9135 11.2907 20.1384L8.52198 23.9219C8.26215 24.2769 8.20176 24.7339 8.36043 25.1443C8.42642 25.315 8.52589 25.4661 8.65059 25.5908C8.82563 25.7658 9.05052 25.8888 9.30229 25.9402L13.5624 26.8091C14.1309 26.9251 14.7098 26.7752 15.1504 26.3976L19.5027 22.6695C19.7052 22.4961 19.7922 22.223 19.7273 21.9644V21.9644Z" fill="#7B61FF"/>
<path d="M9.72793 20.0576C9.72793 20.4534 9.91653 20.8271 10.2387 21.0569C14.9629 24.4276 21.5168 24.2793 25.0936 23.1412C29.0651 21.8776 31.8815 19.1615 33.108 17.7935C33.5283 17.3246 33.5283 16.6159 33.108 16.1471C31.8814 14.7791 29.0651 12.0631 25.0935 10.7994C21.5168 9.66134 14.9629 9.51301 10.2387 12.8837C9.91656 13.1136 9.72793 13.4873 9.72793 13.883L9.72793 20.0576Z" fill="#F1F1FB"/>
<path d="M33.4227 16.9707L9.72742 16.9707L9.72742 20.058C9.72742 20.4538 9.91605 20.8275 10.2382 21.0574C14.9624 24.428 21.5163 24.2797 25.093 23.1417C29.0646 21.878 31.8809 19.162 33.1075 17.7939C33.3176 17.5595 33.4227 17.2651 33.4227 16.9707V16.9707Z" fill="#D7D6FB"/>
<path d="M20.7951 19.4553C20.1584 18.8186 19.7643 17.9399 19.7643 16.9705C19.7643 16.0315 20.1299 15.1486 20.7939 14.4846C21.4579 13.8206 22.3408 13.4549 23.2799 13.4549C25.2183 13.4549 26.7954 15.0319 26.7954 16.9705C26.7955 17.9095 26.4297 18.7924 25.7657 19.4564C25.1017 20.1204 24.2189 20.4861 23.2798 20.4861C22.3107 20.4861 21.4317 20.0917 20.7951 19.4553V19.4553ZM23.2798 14.158L23.2802 14.1584L23.2798 14.158Z" fill="#466288"/>
<path d="M10.2383 12.8839C9.91617 13.1138 9.72754 13.4875 9.72754 13.8833L9.72754 20.0579C9.72754 20.4536 9.91617 20.8273 10.2383 21.0572C11.2663 21.7907 12.3809 22.3573 13.5326 22.7836L13.5326 11.1576C12.3809 11.5838 11.2662 12.1505 10.2383 12.8839V12.8839Z" fill="#466288"/>
<path d="M3.52211 15.4926C3.64933 15.6198 3.82516 15.6985 4.0193 15.6985L7.26578 15.6985C7.65409 15.6985 7.9689 15.3837 7.9689 14.9954C7.96894 14.6071 7.65415 14.2923 7.26579 14.2923L4.01933 14.2923C3.63103 14.2923 3.31621 14.6071 3.31621 14.9954C3.31618 15.1896 3.39487 15.3654 3.52211 15.4926V15.4926Z" fill="white"/>
<path d="M7.96835 16.971C7.96835 16.5828 7.65353 16.2679 7.26523 16.2679L1.02365 16.2679C0.635345 16.2679 0.320528 16.5827 0.320529 16.971C0.320529 17.1652 0.39925 17.341 0.526496 17.4682C0.653742 17.5955 0.829547 17.6741 1.02368 17.6741L7.26526 17.6741C7.65356 17.6742 7.96838 17.3593 7.96835 16.971V16.971Z" fill="white"/>
<path d="M7.96844 18.9458C7.96844 18.5575 7.65362 18.2427 7.26532 18.2426L4.01891 18.2426C3.63061 18.2426 3.31579 18.5574 3.31579 18.9458C3.31579 19.1399 3.39448 19.3157 3.52169 19.4429C3.64891 19.5702 3.82474 19.6489 4.01888 19.6488L7.26535 19.6488C7.65365 19.6489 7.96847 19.3341 7.96844 18.9458V18.9458Z" fill="white"/>
<path d="M0.321196 16.9702C0.321196 17.1644 0.399917 17.3402 0.527163 17.4674C0.654409 17.5946 0.830214 17.6733 1.02435 17.6733L7.26594 17.6733C7.65424 17.6733 7.96905 17.3585 7.96905 16.9702L0.321196 16.9702Z" fill="white"/>
<path d="M9.72774 16.9705L9.72775 20.0578C9.72775 20.4535 9.91638 20.8272 10.2385 21.0571C11.2665 21.7905 12.3811 22.3572 13.5328 22.7835L13.5328 16.9705L9.72774 16.9705Z" fill="#354A67"/>
<path d="M19.764 16.9703C19.764 17.9397 20.1581 18.8184 20.7949 19.4551C21.4315 20.0915 22.3105 20.4859 23.2796 20.4859C24.2187 20.4859 25.1015 20.1202 25.7656 19.4562C26.4296 18.7922 26.7953 17.9093 26.7953 16.9703L19.764 16.9703Z" fill="#354A67"/>
<path d="M24.7704 15.4799C24.3884 15.098 23.8611 14.8614 23.2795 14.8614C22.7161 14.8614 22.1864 15.0808 21.788 15.4792C21.3896 15.8776 21.1702 16.4073 21.1702 16.9707C21.1702 18.1338 22.1165 19.0801 23.2796 19.0801C23.843 19.0801 24.3727 18.8607 24.7712 18.4623C25.1696 18.0639 25.389 17.5342 25.389 16.9708C25.3889 16.3892 25.1524 15.8619 24.7704 15.4799V15.4799Z" fill="#4BBEFD"/>
<path d="M25.3891 16.9705L21.1704 16.9705C21.1704 18.1336 22.1167 19.0799 23.2798 19.0798C23.8432 19.0798 24.3729 18.8604 24.7713 18.462C25.1697 18.0636 25.3892 17.5339 25.3891 16.9705V16.9705Z" fill="#0590FB"/>
</g>
<defs>
<clipPath id="clip0_3423_7134">
<rect width="24" height="24" fill="white" transform="translate(17) rotate(45)"/>
</clipPath>
</defs>
</svg>
