<svg width="25" height="24" viewBox="0 0 25 24" fill="none" xmlns="http://www.w3.org/2000/svg">
<path d="M12.5 0C5.87321 0 0.5 5.37321 0.5 12C0.5 18.6268 5.87321 24 12.5 24C19.1268 24 24.5 18.6268 24.5 12C24.5 5.37321 19.1268 0 12.5 0ZM19.3571 6.79554L18.2643 7.84286C18.1679 7.91518 18.1223 8.03304 18.1411 8.14821V15.8545C18.1223 15.9723 18.1679 16.0902 18.2643 16.1598L19.3357 17.2071V17.4402H13.9571V17.2179L15.0634 16.1438C15.1732 16.0339 15.1732 16.0018 15.1732 15.8384V9.60268L12.0929 17.4134H11.6777L8.09375 9.60268V14.8393C8.06161 15.0589 8.13929 15.2813 8.29464 15.4393L9.73571 17.183V17.4161H5.64286V17.183L7.08393 15.4393C7.15985 15.3609 7.21636 15.2657 7.24892 15.1615C7.28148 15.0574 7.28919 14.947 7.27143 14.8393V8.78571C7.29018 8.61696 7.22589 8.45357 7.09732 8.33839L5.81696 6.79554V6.5625H9.79464L12.8643 13.2991L15.567 6.56786H19.3571V6.79554Z" fill="#919AAE"/>
</svg>
