<svg width="16" height="18" viewBox="0 0 16 18" fill="none" xmlns="http://www.w3.org/2000/svg">
<path d="M11.4286 15.5457V16.9093C11.4286 17.3612 11.0448 17.7275 10.5714 17.7275H0.857143C0.38375 17.7275 0 17.3612 0 16.9093V4.36386C0 3.91198 0.38375 3.54568 0.857143 3.54568H3.42857V13.6366C3.42857 14.6893 4.32575 15.5457 5.42857 15.5457H11.4286ZM11.4286 3.8184V0.272949H5.42857C4.95518 0.272949 4.57143 0.639256 4.57143 1.09113V13.6366C4.57143 14.0885 4.95518 14.4548 5.42857 14.4548H15.1429C15.6163 14.4548 16 14.0885 16 13.6366V4.63659H12.2857C11.8143 4.63659 11.4286 4.2684 11.4286 3.8184ZM15.749 2.7606L13.3939 0.512574C13.2332 0.359146 13.0151 0.27295 12.7878 0.272949L12.5714 0.272949V3.54568H16V3.33912C16 3.12213 15.9097 2.91403 15.749 2.7606Z" fill="#FD849C"/>
</svg>
