<svg width="28" height="28" viewBox="0 0 28 28" fill="none" xmlns="http://www.w3.org/2000/svg">
  <path d="M14 28C21.732 28 28 21.732 28 14C28 6.26801 21.732 0 14 0C6.26801 0 0 6.26801 0 14C0 21.732 6.26801 28 14 28Z" fill="#6398FF" />
  <path d="M13.8362 6.68553L9.90429 13.0264C9.85682 13.1029 9.87995 13.2035 9.95613 13.2515L13.9671 15.7848C14.0213 15.819 14.0903 15.8186 14.144 15.7837L18.0462 13.2526C18.1214 13.2038 18.1436 13.1037 18.0959 13.0277L14.1146 6.68471C14.05 6.58195 13.9001 6.58239 13.8362 6.68553Z" fill="white" />
  <path d="M14.111 17.979L17.5575 15.8355C17.7069 15.7426 17.8779 15.9181 17.7812 16.065L14.3087 21.3397C14.2454 21.4359 14.1054 21.4387 14.0383 21.3451L10.2808 16.1021C10.1765 15.9565 10.3475 15.7729 10.5 15.8667L13.9385 17.9795C13.9915 18.0121 14.0583 18.0119 14.111 17.979Z" fill="white" />
</svg>
  