<svg width="16" height="16" viewBox="0 0 16 16" fill="none" xmlns="http://www.w3.org/2000/svg">
<path d="M15.821 4.5128L11.7806 0.492475C11.606 0.318661 11.344 0.267099 11.117 0.361724C10.8896 0.456131 10.7416 0.678069 10.7416 0.924163V2.74914C8.73856 2.88151 7.73834 3.71199 7.55762 3.87745C5.04411 5.96943 5.32208 8.82203 5.40655 9.38957C5.40777 9.39769 5.40899 9.406 5.41039 9.41413L5.49161 9.88113C5.53527 10.1321 5.72999 10.3293 5.98014 10.3758C6.01749 10.3827 6.05486 10.3861 6.09183 10.3861C6.30321 10.3861 6.5028 10.276 6.61405 10.0903L6.85749 9.68457C8.18824 7.47137 9.83272 7.11503 10.7416 7.11196V9.00538C10.7416 9.25206 10.8904 9.47422 11.1186 9.56841C11.3468 9.66241 11.609 9.60963 11.7828 9.435L15.8233 5.37412C16.0604 5.13574 16.0594 4.74996 15.821 4.5128ZM11.9601 7.52944V6.54853C11.9601 6.24943 11.7433 5.99462 11.448 5.94712C10.7451 5.83402 8.53265 5.69777 6.62199 7.92762C6.74524 7.01756 7.15296 5.79443 8.34849 4.80455C8.36312 4.79236 8.36818 4.7883 8.38159 4.77489C8.39053 4.76658 9.29897 3.94952 11.2898 3.94952H11.3507C11.6872 3.94952 11.9599 3.67683 11.9599 3.34039V2.38954L14.53 4.94652L11.9601 7.52944Z" fill="#6901FC"/>
<path d="M13.6041 12.1322C13.2677 12.1322 12.995 12.4049 12.995 12.7413V14.4672H1.21829V5.5332H4.87311C5.20955 5.5332 5.48224 5.26051 5.48224 4.92407C5.48224 4.58763 5.20955 4.31494 4.87311 4.31494H0.609127C0.272688 4.31491 0 4.5876 0 4.92404V15.0764C0 15.4128 0.272688 15.6855 0.609127 15.6855H13.6041C13.9405 15.6855 14.2132 15.4128 14.2132 15.0764V12.7413C14.2132 12.4049 13.9405 12.1322 13.6041 12.1322Z" fill="#6901FC"/>
</svg>
