<svg width="87" height="74" viewBox="0 0 87 74" fill="none" xmlns="http://www.w3.org/2000/svg">
<path d="M28.4381 32.7871C31.9283 30.7423 35.5948 29.0148 39.3319 27.5693C32.3867 29.05 25.2299 31.7294 18.743 35.5017C0.798285 45.9724 -5.33606 60.991 5.06413 69.0643C8.90691 72.061 14.4419 73.6475 20.8231 74C17.8969 73.0834 15.3233 71.8142 13.208 70.1925C1.60915 61.1672 8.44859 44.4212 28.4381 32.7871Z" fill="url(#paint0_linear_4727_7118)"/>
<path d="M59.6738 51.0492L55.4432 22.951L42.7515 36.2421L43.1745 59.2636C47.4404 57.7829 51.6709 55.9144 55.6547 53.5875C57.0649 52.7414 58.4046 51.8953 59.6738 51.0492Z" fill="url(#paint1_linear_4727_7118)"/>
<path d="M51.9883 0L11.833 65.4683L13.2432 67.1958L42.7163 36.1362V36.242L55.4433 22.9157L51.9883 0Z" fill="url(#paint2_linear_4727_7118)"/>
<path d="M80.7565 21.7524C75.0804 17.3455 66.0199 15.618 55.8665 16.3584L56.5011 19.9191C62.8117 20.4127 68.382 21.7524 71.4492 24.185C81.8494 32.2583 75.715 47.2769 57.7703 57.7476C46.4535 64.3403 26.887 68.2888 15.958 67.7247C29.0728 71.779 49.1328 68.6061 65.4911 59.0873C85.5159 47.4532 92.3553 30.7424 80.7565 21.7524Z" fill="url(#paint3_linear_4727_7118)"/>
<defs>
<linearGradient id="paint0_linear_4727_7118" x1="-2.90134" y1="60.4953" x2="37.0373" y2="25.0154" gradientUnits="userSpaceOnUse">
<stop stop-color="#6400FF"/>
<stop offset="0.1323" stop-color="#6B02FB"/>
<stop offset="0.3276" stop-color="#7F09F0"/>
<stop offset="0.5621" stop-color="#A014DD"/>
<stop offset="0.8246" stop-color="#CD23C4"/>
<stop offset="1" stop-color="#EF2FB1"/>
</linearGradient>
<linearGradient id="paint1_linear_4727_7118" x1="53.0614" y1="22.5765" x2="47.5482" y2="60.4938" gradientUnits="userSpaceOnUse">
<stop stop-color="#6400FF"/>
<stop offset="0.1323" stop-color="#6B02FB"/>
<stop offset="0.3276" stop-color="#7F09F0"/>
<stop offset="0.5621" stop-color="#A014DD"/>
<stop offset="0.8246" stop-color="#CD23C4"/>
<stop offset="1" stop-color="#EF2FB1"/>
</linearGradient>
<linearGradient id="paint2_linear_4727_7118" x1="54.214" y1="36.7301" x2="10.0052" y2="32.8125" gradientUnits="userSpaceOnUse">
<stop offset="0.00859768" stop-color="#FF9199"/>
<stop offset="0.2947" stop-color="#FB799F"/>
<stop offset="0.8979" stop-color="#F13AAE"/>
<stop offset="1" stop-color="#EF2FB1"/>
</linearGradient>
<linearGradient id="paint3_linear_4727_7118" x1="5.11475" y1="55.4807" x2="64.3556" y2="2.8535" gradientUnits="userSpaceOnUse">
<stop stop-color="#6400FF"/>
<stop offset="0.1323" stop-color="#6B02FB"/>
<stop offset="0.3276" stop-color="#7F09F0"/>
<stop offset="0.5621" stop-color="#A014DD"/>
<stop offset="0.8246" stop-color="#CD23C4"/>
<stop offset="1" stop-color="#EF2FB1"/>
</linearGradient>
</defs>
</svg>
