<svg width="22" height="21" viewBox="0 0 22 21" fill="none" xmlns="http://www.w3.org/2000/svg">
<g opacity="0.6" clip-path="url(#clip0_4066_8670)">
<path d="M20.8387 0.5L11.6848 7.27325L13.3871 3.28158L20.8387 0.5Z" fill="#E17726"/>
<path d="M0.515875 0.508057L7.94762 3.28214L9.56396 7.32614L0.515875 0.508057ZM17.155 14.9049L21.2009 14.9819L19.7869 19.7854L14.85 18.4261L17.155 14.9049ZM4.17821 14.9049L6.47462 18.4261L1.54604 19.7855L0.140625 14.9819L4.17821 14.9049Z" fill="#E27625"/>
<path d="M9.34426 6.29603L9.50959 11.6363L4.56201 11.4112L5.96935 9.28803L5.98718 9.26761L9.34426 6.29603ZM11.9378 6.23645L15.3462 9.26778L15.3638 9.28811L16.7712 11.4113L11.8247 11.6363L11.9378 6.23645ZM6.61959 14.9204L9.32109 17.0253L6.18293 18.5404L6.61959 14.9204ZM14.7143 14.92L15.1418 18.5404L12.0124 17.0251L14.7143 14.92Z" fill="#E27625"/>
<path d="M12.0815 16.8268L15.2571 18.3644L12.3032 19.7683L12.3339 18.8404L12.0815 16.8268ZM9.25096 16.8274L9.00854 18.8253L9.02846 19.7672L6.06763 18.3644L9.25096 16.8274Z" fill="#D5BFB2"/>
<path d="M8.3338 12.3333L9.16363 14.0773L6.33838 13.2496L8.3338 12.3333ZM12.9992 12.3334L15.004 13.2496L12.1695 14.077L12.9992 12.3334Z" fill="#233447"/>
<path d="M6.83557 14.9026L6.3789 18.6559L3.93115 14.9846L6.83557 14.9026ZM14.4981 14.9026L17.4026 14.9846L14.9456 18.6561L14.4981 14.9026ZM16.8427 11.199L14.729 13.3532L13.0992 12.6085L12.319 14.2488L11.8075 11.4281L16.8427 11.199ZM4.48965 11.199L9.5259 11.4281L9.01432 14.2488L8.2339 12.6087L6.61282 13.3533L4.48965 11.199Z" fill="#CC6228"/>
<path d="M4.34717 10.7568L6.73867 13.1835L6.8215 15.5793L4.34717 10.7568ZM16.9886 10.7524L14.5098 15.5835L14.6031 13.1835L16.9886 10.7524ZM9.40892 10.9046L9.50517 11.5104L9.743 13.0197L9.59008 17.6551L8.86717 13.9314L8.86692 13.8929L9.40892 10.9046ZM11.9232 10.8962L12.4666 13.8929L12.4663 13.9314L11.7416 17.6644L11.7129 16.7307L11.5998 12.9922L11.9232 10.8962Z" fill="#E27525"/>
<path d="M14.8156 13.0872L14.7347 15.1687L12.2119 17.1342L11.7019 16.7739L12.2735 13.8293L14.8156 13.0872ZM6.52637 13.0872L9.05962 13.8293L9.63128 16.7739L9.12128 17.1342L6.59837 15.1685L6.52637 13.0872Z" fill="#F5841F"/>
<path d="M5.58472 17.9048L8.81238 19.4341L8.79872 18.781L9.0688 18.544H12.2633L12.5431 18.7802L12.5225 19.4328L15.7297 17.9086L14.1691 19.1983L12.282 20.4944H9.04288L7.15705 19.1929L5.58472 17.9048Z" fill="#C0AC9D"/>
<path d="M11.8504 16.6233L12.3067 16.9457L12.5742 19.0794L12.1872 18.7526H9.14749L8.76782 19.086L9.02649 16.9459L9.48299 16.6233H11.8504Z" fill="#161616"/>
<path d="M20.2345 0.6875L21.3333 3.98392L20.6471 7.317L21.1358 7.69392L20.4745 8.19842L20.9715 8.58225L20.3134 9.1815L20.7174 9.47408L19.6453 10.7262L15.2478 9.44583L15.2097 9.42542L12.0408 6.75225L20.2345 0.6875ZM1.09883 0.6875L9.29267 6.75225L6.12367 9.42542L6.08558 9.44583L1.68808 10.7262L0.615917 9.47408L1.01958 9.18175L0.361917 8.58225L0.857917 8.19883L0.18675 7.69292L0.693833 7.31575L0 3.98408L1.09883 0.6875Z" fill="#763E1A"/>
<path d="M15.0327 9.16578L19.6922 10.5224L21.2059 15.1879H17.2122L14.4606 15.2225L16.4617 11.3219L15.0327 9.16578ZM6.30074 9.16578L4.87149 11.3219L6.8729 15.2225L4.12249 15.1879H0.135986L1.64124 10.5224L6.30074 9.16578ZM13.6154 3.25928L12.3122 6.77919L12.0356 11.5342L11.9297 13.0246L11.9213 16.8319H9.41207L9.40391 13.0318L9.29774 11.5329L9.02107 6.77919L7.71799 3.25928H13.6154Z" fill="#F5841F"/>
</g>
<defs>
<clipPath id="clip0_4066_8670">
<rect width="21.3333" height="20" fill="white" transform="translate(0 0.5)"/>
</clipPath>
</defs>
</svg>
