<svg width="26" height="24" viewBox="0 0 26 24" fill="none" xmlns="http://www.w3.org/2000/svg">
<g clip-path="url(#clip0_3488_5693)">
<path d="M25.0067 0L14.022 8.1279L16.0647 3.3379L25.0067 0Z" fill="#E17726"/>
<path d="M0.619001 0.00964355L9.5371 3.33854L11.4767 8.19134L0.619001 0.00964355ZM20.5859 17.2858L25.441 17.3782L23.7442 23.1424L17.8199 21.5113L20.5859 17.2858ZM5.0138 17.2858L7.7695 21.5113L1.8552 23.1425L0.168701 17.3782L5.0138 17.2858Z" fill="#E27625"/>
<path d="M11.2131 6.95517L11.4115 13.3635L5.47437 13.0934L7.16317 10.5456L7.18457 10.5211L11.2131 6.95517ZM14.3254 6.88367L18.4154 10.5213L18.4366 10.5457L20.1254 13.0935L14.1896 13.3635L14.3254 6.88367ZM7.94346 17.3044L11.1853 19.8303L7.41947 21.6484L7.94346 17.3044ZM17.6571 17.304L18.1702 21.6485L14.4149 19.8301L17.6571 17.304Z" fill="#E27625"/>
<path d="M14.4977 19.5922L18.3084 21.4374L14.7637 23.122L14.8005 22.0086L14.4977 19.5922ZM11.101 19.593L10.8101 21.9904L10.834 23.1207L7.28101 21.4374L11.101 19.593Z" fill="#D5BFB2"/>
<path d="M10.0007 14.2L10.9965 16.2928L7.6062 15.2996L10.0007 14.2ZM15.5992 14.2002L18.005 15.2996L14.6036 16.2925L15.5992 14.2002Z" fill="#233447"/>
<path d="M8.20258 17.283L7.65458 21.787L4.71729 17.3815L8.20258 17.283ZM17.3976 17.2831L20.883 17.3815L17.9347 21.7872L17.3976 17.2831ZM20.2112 12.8387L17.6747 15.4238L15.719 14.5301L14.7827 16.4985L14.1689 13.1136L20.2112 12.8387ZM5.38749 12.8387L11.431 13.1136L10.8171 16.4985L9.88058 14.5304L7.93528 15.4239L5.38749 12.8387Z" fill="#CC6228"/>
<path d="M5.21655 12.3082L8.08635 15.2203L8.18575 18.0952L5.21655 12.3082ZM20.3863 12.303L17.4117 18.1003L17.5237 15.2203L20.3863 12.303ZM11.2907 12.4856L11.4062 13.2126L11.6916 15.0237L11.5081 20.5862L10.6406 16.1177L10.6403 16.0715L11.2907 12.4856ZM14.3078 12.4755L14.9599 16.0715L14.9596 16.1177L14.0899 20.5974L14.0555 19.4769L13.9198 14.9907L14.3078 12.4755Z" fill="#E27525"/>
<path d="M17.7789 15.1046L17.6818 17.6024L14.6544 19.9611L14.0424 19.5287L14.7284 15.9952L17.7789 15.1046ZM7.83179 15.1046L10.8717 15.9952L11.5577 19.5287L10.9457 19.9611L7.91819 17.6022L7.83179 15.1046Z" fill="#F5841F"/>
<path d="M6.7019 20.8857L10.5751 22.7209L10.5587 21.9372L10.8828 21.6527H14.7162L15.052 21.9362L15.0272 22.7193L18.8759 20.8903L17.0031 22.4379L14.7386 23.9932H10.8517L8.5887 22.4315L6.7019 20.8857Z" fill="#C0AC9D"/>
<path d="M14.2203 19.3479L14.7679 19.7348L15.0888 22.2952L14.6244 21.9031H10.9768L10.5212 22.3031L10.8316 19.735L11.3794 19.3479H14.2203Z" fill="#161616"/>
<path d="M24.2814 0.224976L25.6 4.18068L24.7765 8.18038L25.3629 8.63268L24.5694 9.23808L25.1658 9.69868L24.3761 10.4178L24.8609 10.7689L23.5743 12.2715L18.2973 10.735L18.2516 10.7105L14.4489 7.50268L24.2814 0.224976ZM1.3186 0.224976L11.1512 7.50268L7.3484 10.7105L7.3027 10.735L2.0257 12.2715L0.7391 10.7689L1.2235 10.4181L0.4343 9.69868L1.0295 9.23858L0.2241 8.63148L0.8326 8.17888L0 4.18088L1.3186 0.224976Z" fill="#763E1A"/>
<path d="M18.0392 10.399L23.6305 12.0269L25.447 17.6255H20.6546L17.3526 17.6671L19.754 12.9863L18.0392 10.399ZM7.56079 10.399L5.84569 12.9863L8.24739 17.6671L4.94689 17.6255H0.163086L1.96939 12.027L7.56079 10.399ZM16.3384 3.31116L14.7745 7.53506L14.4426 13.2411L14.3156 15.0296L14.3055 19.5984H11.2944L11.2846 15.0382L11.1572 13.2396L10.8252 7.53506L9.26149 3.31116H16.3384Z" fill="#F5841F"/>
</g>
<defs>
<clipPath id="clip0_3488_5693">
<rect width="25.6" height="24" fill="white"/>
</clipPath>
</defs>
</svg>
