<svg width="48" height="48" viewBox="0 0 48 48" fill="none" xmlns="http://www.w3.org/2000/svg">
<g clip-path="url(#clip0_4702_3995)">
<path d="M39.9762 10.339C36.5137 6.75737 32.0325 4.47991 27.1691 3.78709L28.5553 2.40091C29.1045 1.85172 29.1045 0.961374 28.5553 0.412186C28.0062 -0.136907 27.1157 -0.136907 26.5666 0.412186L23.0053 3.97337C22.4561 4.52247 22.4561 5.4129 23.0053 5.96209L26.5665 9.52328C26.8411 9.79787 27.201 9.93522 27.5608 9.93522C27.9206 9.93522 28.2806 9.79787 28.5551 9.52328C29.1043 8.97419 29.1043 8.08375 28.5551 7.53456L27.7587 6.73815C31.6224 7.49425 35.1661 9.40994 37.9539 12.2937C41.47 15.9308 43.4064 20.7207 43.4064 25.7808C43.4066 36.4818 34.7006 45.1877 23.9997 45.1877C13.2988 45.1877 4.59277 36.4818 4.59277 25.7809C4.59277 21.6977 5.84593 17.7917 8.21687 14.4853C10.5386 11.2474 13.7392 8.8314 17.473 7.49847C18.2044 7.23728 18.5856 6.43272 18.3245 5.70119C18.0634 4.96975 17.2587 4.58856 16.5272 4.84965C12.252 6.376 8.58793 9.14125 5.93115 12.8463C3.21559 16.6335 1.78027 21.1062 1.78027 25.781C1.78027 31.7161 4.09149 37.2958 8.28821 41.4925C12.4849 45.6889 18.0646 48.0002 23.9997 48.0002C29.9347 48.0002 35.5144 45.689 39.7112 41.4924C43.9079 37.2957 46.2191 31.716 46.2191 25.7809C46.2191 19.9874 44.0019 14.5033 39.9762 10.339Z" fill="url(#paint0_linear_4702_3995)"/>
<path d="M9.55176 25.7807C9.55176 33.7475 16.0333 40.229 24.0001 40.229C31.9669 40.229 38.4484 33.7475 38.4484 25.7807C38.4484 17.814 31.9669 11.3323 24.0001 11.3323C16.0332 11.3323 9.55176 17.8139 9.55176 25.7807ZM24.8634 27.0324C22.8391 26.3168 21.6663 25.7528 20.8154 25.0854C19.7683 24.2641 19.2889 22.8455 19.5644 21.3835C19.8632 19.7974 20.9693 18.5348 22.451 18.0885C22.4715 18.0823 22.4917 18.0773 22.5121 18.0713V17.5051C22.5121 16.7284 23.1418 16.0988 23.9184 16.0988C24.695 16.0988 25.3246 16.7284 25.3246 17.5051V17.9818C26.3065 18.2117 26.9918 18.6605 27.2688 18.8676C27.8909 19.3327 28.0182 20.2139 27.5532 20.836C27.0881 21.4581 26.2071 21.5852 25.5848 21.1203C25.287 20.8978 24.4652 20.4189 23.2622 20.7813C22.5515 20.9955 22.3677 21.6949 22.3282 21.9043C22.2503 22.3177 22.3398 22.7069 22.551 22.8724C23.2867 23.4493 24.6065 23.9586 25.8006 24.3807C27.985 25.1528 29.1996 27.1764 28.8231 29.416C28.6382 30.5156 28.0851 31.5359 27.2654 32.2891C26.7016 32.8069 26.0447 33.1752 25.3246 33.3829V34.0562C25.3246 34.8329 24.695 35.4625 23.9184 35.4625C23.1418 35.4625 22.5121 34.8329 22.5121 34.0562V33.5212C21.5766 33.4112 20.7959 33.1232 19.746 32.4363C19.0961 32.0112 18.9139 31.1396 19.3391 30.4896C19.7642 29.8396 20.6359 29.6575 21.2858 30.0827C22.2592 30.7195 22.6273 30.778 23.909 30.7691C25.171 30.7607 25.9032 29.8201 26.0495 28.9497C26.1211 28.5246 26.1486 27.4867 24.8634 27.0324Z" fill="url(#paint1_linear_4702_3995)"/>
</g>
<defs>
<linearGradient id="paint0_linear_4702_3995" x1="1.78027" y1="28.5717" x2="46.2191" y2="28.5717" gradientUnits="userSpaceOnUse">
<stop stop-color="#FD849C"/>
<stop offset="1" stop-color="#6901FC"/>
</linearGradient>
<linearGradient id="paint1_linear_4702_3995" x1="9.55176" y1="28.5327" x2="38.4484" y2="28.5327" gradientUnits="userSpaceOnUse">
<stop stop-color="#FD849C"/>
<stop offset="1" stop-color="#6901FC"/>
</linearGradient>
<clipPath id="clip0_4702_3995">
<rect width="48" height="48" fill="white"/>
</clipPath>
</defs>
</svg>
