<svg width="16" height="16" viewBox="0 0 16 16" fill="none" xmlns="http://www.w3.org/2000/svg">
<path d="M15.6676 12.0372L10.0155 1.64735C9.10744 0.118566 6.89378 0.116535 5.98447 1.64735L0.332715 12.0372C-0.595598 13.5994 0.528309 15.5776 2.34778 15.5776H13.652C15.47 15.5776 16.5959 13.601 15.6676 12.0372ZM8 13.7026C7.48319 13.7026 7.0625 13.2819 7.0625 12.7651C7.0625 12.2483 7.48319 11.8276 8 11.8276C8.51681 11.8276 8.9375 12.2483 8.9375 12.7651C8.9375 13.2819 8.51681 13.7026 8 13.7026ZM8.9375 9.95257C8.9375 10.4694 8.51681 10.8901 8 10.8901C7.48319 10.8901 7.0625 10.4694 7.0625 9.95257V5.26507C7.0625 4.74826 7.48319 4.32757 8 4.32757C8.51681 4.32757 8.9375 4.74826 8.9375 5.26507V9.95257Z" fill="#FF6838"/>
</svg>
