<svg width="156" height="40" viewBox="0 0 156 40" fill="none" xmlns="http://www.w3.org/2000/svg">
<path d="M53.7711 14.1973H57.087L63.6997 31.4055H60.2885L58.9355 27.8609H51.9226L50.5315 31.4055H47.1204L53.7711 14.1973ZM55.4672 18.7709L53.1613 24.6784H57.7731L55.4672 18.7709Z" fill="white" stroke="white" stroke-miterlimit="10"/>
<path d="M65.8911 18.6751H69.0926V19.9709C69.8168 19.3611 70.4647 18.9418 71.0555 18.6941C71.6462 18.4464 72.237 18.332 72.8659 18.332C74.1236 18.332 75.1908 18.7703 76.0864 19.6469C76.8297 20.3902 77.1917 21.4954 77.1917 22.9628V31.3668H74.0283V25.8023C74.0283 24.2777 73.9521 23.2677 73.8187 22.7722C73.6853 22.2768 73.4376 21.8956 73.1136 21.6288C72.7706 21.362 72.3513 21.2286 71.8559 21.2286C71.2079 21.2286 70.6553 21.4383 70.1979 21.8766C69.7406 22.3149 69.4166 22.9056 69.226 23.6679C69.1308 24.0681 69.0926 24.9256 69.0926 26.2406V31.3478H65.8911V18.6751Z" fill="white" stroke="white" stroke-miterlimit="10"/>
<path d="M80.6601 13.9873H83.8616V18.6753H85.7483V21.4194H83.8616V31.4051H80.6601V21.4194H79.0212V18.6753H80.6601V13.9873Z" fill="white" stroke="white" stroke-miterlimit="10"/>
<path d="M100.212 25.9742H89.9407C90.0932 26.8699 90.4934 27.5941 91.1222 28.1276C91.7702 28.6612 92.5896 28.928 93.5805 28.928C94.7811 28.928 95.7911 28.5088 96.6487 27.6703L99.3357 28.928C98.6687 29.8809 97.8683 30.586 96.9345 31.0433C96.0007 31.5007 94.8955 31.7294 93.5996 31.7294C91.5986 31.7294 89.9788 31.1005 88.7211 29.8427C87.4633 28.585 86.8345 27.0033 86.8345 25.1167C86.8345 23.1729 87.4633 21.5721 88.7211 20.2763C89.9788 18.9995 91.5415 18.3516 93.4281 18.3516C95.429 18.3516 97.0679 18.9995 98.3257 20.2763C99.5834 21.5531 100.212 23.2491 100.212 25.3644V25.9742ZM97.0107 23.4588C96.8011 22.7537 96.3819 22.1629 95.7721 21.7246C95.1432 21.2863 94.4381 21.0576 93.6187 21.0576C92.723 21.0576 91.9417 21.3053 91.2747 21.8008C90.8554 22.1057 90.4552 22.6584 90.1122 23.4588H97.0107Z" fill="white" stroke="white" stroke-miterlimit="10"/>
<path d="M103.147 14.1973H107.035C109.531 14.1973 111.399 14.5022 112.618 15.131C113.838 15.7599 114.829 16.7509 115.629 18.1611C116.429 19.5713 116.811 21.1911 116.811 23.0586C116.811 24.3926 116.582 25.6122 116.144 26.7175C115.705 27.8228 115.096 28.7566 114.314 29.4807C113.533 30.2049 112.694 30.7194 111.799 31.0053C110.903 31.2911 109.321 31.4245 107.092 31.4245H103.147V14.1973ZM106.406 17.3607V28.223H107.93C109.436 28.223 110.522 28.0515 111.189 27.7085C111.856 27.3654 112.409 26.7937 112.847 25.9743C113.266 25.1549 113.495 24.1639 113.495 22.9824C113.495 21.153 112.98 19.7428 111.97 18.7328C111.055 17.818 109.569 17.3797 107.53 17.3797H106.406V17.3607Z" fill="white" stroke="white" stroke-miterlimit="10"/>
<path d="M125.158 14.1973H128.473L135.086 31.4055H131.675L130.322 27.8609H123.309L121.918 31.4055H118.526L125.158 14.1973ZM126.854 18.7709L124.548 24.6784H129.16L126.854 18.7709Z" fill="white" stroke="white" stroke-miterlimit="10"/>
<path d="M145.758 13.7778C148.197 13.7778 150.293 14.6544 152.046 16.4267C153.8 18.1799 154.676 20.3333 154.676 22.8679C154.676 25.3834 153.819 27.4987 152.085 29.2519C150.35 30.986 148.254 31.8626 145.796 31.8626C143.204 31.8626 141.07 30.967 139.355 29.1756C137.64 27.3843 136.782 25.269 136.782 22.8107C136.782 21.1718 137.182 19.6473 137.983 18.2752C138.783 16.9031 139.869 15.7978 141.26 14.9975C142.651 14.178 144.157 13.7778 145.758 13.7778ZM145.72 16.9794C144.119 16.9794 142.785 17.532 141.699 18.6373C140.612 19.7426 140.079 21.1528 140.079 22.8679C140.079 24.7735 140.765 26.279 142.137 27.3843C143.204 28.2419 144.424 28.6802 145.796 28.6802C147.358 28.6802 148.673 28.1275 149.76 27.0032C150.846 25.8788 151.398 24.4877 151.398 22.8488C151.398 21.2099 150.846 19.8188 149.741 18.6945C148.635 17.532 147.301 16.9794 145.72 16.9794Z" fill="white" stroke="white" stroke-miterlimit="10"/>
<path d="M15.372 17.7227C17.2586 16.6174 19.2405 15.6837 21.2605 14.9023C17.5063 15.7027 13.6378 17.151 10.1314 19.1901C0.431505 24.8499 -2.88436 32.9681 2.73737 37.3321C4.81455 38.9519 7.80645 39.8094 11.2557 40C9.674 39.5045 8.28286 38.8185 7.13946 37.9419C0.869809 33.0634 4.56681 24.0114 15.372 17.7227Z" fill="url(#paint0_linear_4739_396)"/>
<path d="M32.2561 27.5939L29.9693 12.4058L23.1089 19.5901L23.3376 32.0342C25.6434 31.2338 27.9302 30.2238 30.0836 28.966C30.8459 28.5087 31.5701 28.0513 32.2561 27.5939Z" fill="url(#paint1_linear_4739_396)"/>
<path d="M28.1018 0L6.39624 35.3883L7.15851 36.3221L23.0899 19.5331V19.5903L29.9694 12.3869L28.1018 0Z" fill="url(#paint2_linear_4739_396)"/>
<path d="M43.6522 11.7578C40.5841 9.37569 35.6865 8.44191 30.1982 8.8421L30.5412 10.7668C33.9523 11.0336 36.9633 11.7578 38.6212 13.0727C44.2429 17.4367 40.9271 25.5548 31.2272 31.2147C25.11 34.7783 14.5336 36.9126 8.62598 36.6077C15.7151 38.7992 26.5583 37.0841 35.4006 31.9388C46.2248 25.6501 49.9218 16.6172 43.6522 11.7578Z" fill="url(#paint3_linear_4739_396)"/>
<defs>
<linearGradient id="paint0_linear_4739_396" x1="-1.56829" y1="32.7002" x2="20.0202" y2="13.5219" gradientUnits="userSpaceOnUse">
<stop stop-color="#6400FF"/>
<stop offset="0.1323" stop-color="#6B02FB"/>
<stop offset="0.3276" stop-color="#7F09F0"/>
<stop offset="0.5621" stop-color="#A014DD"/>
<stop offset="0.8246" stop-color="#CD23C4"/>
<stop offset="1" stop-color="#EF2FB1"/>
</linearGradient>
<linearGradient id="paint1_linear_4739_396" x1="28.6818" y1="12.2033" x2="25.7017" y2="32.6992" gradientUnits="userSpaceOnUse">
<stop stop-color="#6400FF"/>
<stop offset="0.1323" stop-color="#6B02FB"/>
<stop offset="0.3276" stop-color="#7F09F0"/>
<stop offset="0.5621" stop-color="#A014DD"/>
<stop offset="0.8246" stop-color="#CD23C4"/>
<stop offset="1" stop-color="#EF2FB1"/>
</linearGradient>
<linearGradient id="paint2_linear_4739_396" x1="29.3049" y1="19.8541" x2="5.40824" y2="17.7365" gradientUnits="userSpaceOnUse">
<stop offset="0.00859768" stop-color="#FF9199"/>
<stop offset="0.2947" stop-color="#FB799F"/>
<stop offset="0.8979" stop-color="#F13AAE"/>
<stop offset="1" stop-color="#EF2FB1"/>
</linearGradient>
<linearGradient id="paint3_linear_4739_396" x1="2.76476" y1="29.9893" x2="34.7869" y2="1.54216" gradientUnits="userSpaceOnUse">
<stop stop-color="#6400FF"/>
<stop offset="0.1323" stop-color="#6B02FB"/>
<stop offset="0.3276" stop-color="#7F09F0"/>
<stop offset="0.5621" stop-color="#A014DD"/>
<stop offset="0.8246" stop-color="#CD23C4"/>
<stop offset="1" stop-color="#EF2FB1"/>
</linearGradient>
</defs>
</svg>
